<svg width="146" height="36" viewBox="0 0 146 36" fill="none" xmlns="http://www.w3.org/2000/svg">
<g clip-path="url(#clip0)">
<path d="M2.90218 3.49112C35.5043 -0.279401 66.5974 -0.377581 145.175 1.77562L2.90218 3.49112ZM1.24991 2.52132C49.1362 0.622252 95.2654 2.14911 144.705 2.06091L1.24991 2.52132ZM143.199 0.0399475C145.888 10.2034 142.312 17.946 143.004 32.4763L143.199 0.0399475ZM144.084 1.55562C143.235 9.45236 144.794 17.7709 143.065 34.8645L144.084 1.55562ZM145.586 34.3024C112.159 36.4379 81.7253 35.5797 0.93648 32.9749L145.586 34.3024ZM143.102 34.7484C114.779 32.7004 85.7912 33.7903 1.65897 34.1747L143.102 34.7484ZM2.1288 35.1942C1.36042 23.6099 0.306051 13.9239 0.768478 3.32979L2.1288 35.1942ZM2.24593 33.3015C1.62955 20.9088 1.50079 8.91814 2.49876 1.79362Z" fill="black"/>
<path d="M2.24593 33.3015C1.62955 20.9088 1.50079 8.91814 2.49876 1.79362M2.90218 3.49112C35.5043 -0.279401 66.5974 -0.377581 145.175 1.77562L2.90218 3.49112ZM1.24991 2.52132C49.1362 0.622252 95.2654 2.14911 144.705 2.06091L1.24991 2.52132ZM143.199 0.0399475C145.888 10.2034 142.312 17.946 143.004 32.4763L143.199 0.0399475ZM144.084 1.55562C143.235 9.45236 144.794 17.7709 143.065 34.8645L144.084 1.55562ZM145.586 34.3024C112.159 36.4379 81.7253 35.5797 0.93648 32.9749L145.586 34.3024ZM143.102 34.7484C114.779 32.7004 85.7912 33.7903 1.65897 34.1747L143.102 34.7484ZM2.1288 35.1942C1.36042 23.6099 0.306051 13.9239 0.768478 3.32979L2.1288 35.1942Z" stroke="#444444"/>
</g>

</svg>
