<?xml version="1.0" standalone="no"?>
<!DOCTYPE svg PUBLIC "-//W3C//DTD SVG 20010904//EN"
 "http://www.w3.org/TR/2001/REC-SVG-20010904/DTD/svg10.dtd">
<svg version="1.0" xmlns="http://www.w3.org/2000/svg"
 width="543.000000pt" height="564.000000pt" viewBox="0 0 543.000000 564.000000"
 preserveAspectRatio="xMidYMid meet">

<g transform="translate(0.000000,564.000000) scale(0.100000,-0.100000)"
fill="#000000" stroke="none">
<path d="M2870 5453 c-213 -265 -454 -562 -595 -733 -66 -80 -165 -202 -220
-269 -55 -68 -134 -165 -176 -215 -134 -161 -449 -554 -652 -811 -108 -137
-210 -266 -225 -285 -59 -72 -403 -531 -504 -670 -353 -489 -488 -706 -488
-785 0 -34 45 -106 128 -205 203 -241 1122 -1189 1207 -1243 56 -36 347 -123
660 -197 l170 -40 21 23 c12 12 169 191 350 397 760 866 938 1075 1334 1570
112 140 319 392 459 559 521 619 647 771 820 986 272 339 275 343 259 363 -38
50 -417 467 -623 687 -299 320 -885 902 -933 928 -26 14 -78 32 -117 40 -65
15 -427 57 -610 72 -44 4 -87 9 -97 11 -12 4 -58 -47 -168 -183z m595 91 c176
-19 315 -49 380 -81 92 -47 721 -698 1189 -1233 270 -308 289 -330 285 -335
-3 -2 -106 21 -229 51 -124 30 -315 75 -425 100 l-200 46 -48 47 c-57 54 -440
466 -582 626 -54 61 -186 209 -293 330 -108 121 -247 275 -309 341 -62 67
-113 125 -113 129 0 9 150 0 345 -21z m-229 -207 c110 -111 298 -317 419 -457
365 -424 485 -561 574 -655 167 -175 155 -158 137 -194 -83 -159 -358 -540
-557 -771 l-22 -25 -144 150 c-144 149 -380 412 -628 700 -217 251 -343 394
-472 531 l-123 132 93 128 c51 71 172 228 268 349 96 121 190 242 208 268 19
26 38 47 41 47 4 0 97 -91 206 -203z m-464 -1085 c84 -93 268 -301 408 -462
140 -162 324 -372 408 -468 l154 -173 -93 -122 c-285 -374 -541 -692 -1089
-1351 -206 -249 -404 -489 -440 -534 -36 -44 -70 -81 -77 -81 -6 -1 -51 46
-100 102 -48 57 -176 205 -283 328 -245 281 -537 627 -661 784 -149 188 -279
362 -279 373 0 10 6 18 266 357 382 500 891 1128 1323 1633 l46 54 132 -136
c72 -75 201 -212 285 -304z m2016 -306 c428 -97 512 -117 512 -126 0 -9 -121
-160 -284 -355 -132 -156 -368 -444 -406 -494 l-25 -33 -60 27 c-102 45 -282
109 -465 165 -96 29 -179 56 -183 60 -4 4 104 157 240 342 136 184 271 367
298 406 30 43 57 71 68 72 10 0 147 -29 305 -64z m-782 -875 c151 -46 505
-169 517 -180 4 -4 -36 -58 -88 -120 -101 -120 -288 -349 -641 -786 -408 -505
-705 -851 -929 -1084 l-101 -104 -39 21 c-65 32 -203 78 -403 133 -103 28
-192 54 -198 58 -12 6 20 49 325 420 97 118 201 245 231 282 143 175 300 367
406 494 144 173 564 698 659 823 82 107 58 104 261 43z m-3117 -780 c156 -195
377 -458 636 -756 330 -380 455 -527 455 -534 0 -3 -55 -74 -121 -156 -67 -83
-138 -170 -158 -195 -20 -25 -96 -119 -170 -208 l-134 -164 -51 49 c-612 585
-996 980 -1224 1257 l-82 99 32 56 c74 131 234 362 506 730 l83 113 52 -68
c29 -37 108 -138 176 -223z m1249 -1366 c86 -21 288 -81 500 -146 39 -12 72
-27 72 -33 -1 -16 -277 -344 -436 -517 l-138 -151 -49 7 c-99 13 -577 151
-599 173 -3 4 49 75 115 158 374 464 431 534 435 534 2 0 47 -11 100 -25z"/>
<path d="M2520 3737 c-33 -17 -70 -74 -70 -108 0 -23 11 -37 53 -69 28 -23 68
-54 87 -69 19 -16 51 -41 70 -57 19 -15 65 -57 103 -93 56 -55 70 -64 85 -55
28 18 26 43 -7 84 -17 22 -31 43 -31 47 0 5 30 9 68 9 64 0 132 22 132 43 0 4
-45 11 -100 14 -79 4 -108 10 -142 29 l-43 23 -5 72 c-4 52 -10 77 -25 93 -41
46 -123 63 -175 37z m113 -77 c20 -22 27 -41 27 -70 0 -22 -3 -40 -8 -40 -22
0 -109 70 -124 99 -22 44 -15 55 36 48 29 -4 49 -15 69 -37z"/>
<path d="M2243 3468 c-26 -40 -47 -80 -47 -88 -1 -8 51 -60 114 -114 63 -55
155 -136 204 -180 l89 -80 73 79 c41 44 74 83 74 86 0 3 -8 13 -18 22 -16 15
-22 11 -81 -44 -35 -32 -68 -59 -72 -59 -4 0 -37 25 -73 55 l-66 56 26 42 c15
23 37 54 50 68 24 25 24 26 4 44 -25 22 -36 14 -87 -62 -40 -61 -37 -62 -127
21 l-60 55 48 77 c37 59 44 79 34 85 -26 17 -39 8 -85 -63z"/>
<path d="M2112 3225 c-70 -58 -95 -183 -48 -230 32 -32 82 -40 172 -26 117 17
180 15 204 -9 11 -11 20 -24 20 -29 0 -5 2 -16 6 -24 3 -8 -11 -35 -31 -61
-20 -26 -35 -52 -33 -57 5 -16 86 47 103 80 8 17 15 48 15 70 0 31 -6 44 -30
65 -42 35 -83 40 -199 27 -115 -14 -165 -8 -186 22 -24 34 -18 71 20 120 53
70 45 101 -13 52z"/>
<path d="M1874 2905 c-16 -25 -16 -26 28 -73 24 -26 64 -74 88 -107 74 -100
163 -206 181 -215 32 -18 9 27 -47 90 -80 89 -81 93 -43 140 18 22 39 40 46
40 8 0 49 -18 90 -40 73 -38 144 -53 157 -32 8 13 -52 67 -101 91 -22 11 -100
38 -172 60 -72 22 -145 47 -162 55 -42 21 -46 20 -65 -9z m146 -93 c39 -19 46
-48 17 -66 -16 -9 -25 -4 -58 33 -21 24 -39 48 -39 53 0 11 30 3 80 -20z"/>
<path d="M1681 2697 c-34 -17 -61 -56 -67 -98 -6 -34 -4 -37 38 -62 25 -14 96
-72 159 -128 63 -56 132 -115 153 -130 l39 -29 14 27 c14 27 13 29 -19 57 -73
63 -118 109 -113 116 3 5 49 -7 103 -26 98 -34 142 -42 142 -25 0 23 -67 54
-177 82 -65 17 -119 32 -120 33 -1 1 2 19 8 40 24 87 -18 156 -93 156 -24 0
-54 -6 -67 -13z m93 -29 c10 -14 16 -44 16 -75 0 -49 -2 -53 -23 -53 -28 0
-107 54 -107 73 1 26 56 76 87 77 6 0 19 -10 27 -22z"/>
<path d="M1437 2428 c-71 -112 -73 -117 -57 -131 8 -8 102 -89 209 -182 l193
-167 45 43 c25 24 58 61 75 82 29 37 30 39 13 57 -18 20 -19 19 -81 -40 -34
-33 -67 -60 -73 -60 -5 0 -38 23 -73 52 -35 28 -65 53 -67 54 -2 2 20 35 49
74 48 67 50 73 33 86 -10 7 -21 14 -24 14 -9 0 -44 -41 -74 -87 -15 -24 -30
-43 -34 -43 -3 1 -37 29 -75 64 l-70 63 49 78 c38 61 45 79 34 86 -26 16 -38
9 -72 -43z"/>
</g>
</svg>
