<?xml version="1.0" standalone="no"?>
<!DOCTYPE svg PUBLIC "-//W3C//DTD SVG 20010904//EN"
 "http://www.w3.org/TR/2001/REC-SVG-20010904/DTD/svg10.dtd">
<svg version="1.0" xmlns="http://www.w3.org/2000/svg"
 width="273.000000pt" height="262.000000pt" viewBox="0 0 273.000000 262.000000"
 preserveAspectRatio="xMidYMid meet">

<g transform="translate(0.000000,262.000000) scale(0.100000,-0.100000)"
fill="#000000" stroke="none">
<path d="M1356 2599 c-85 -11 -207 -42 -289 -73 -231 -88 -334 -139 -449 -223
-37 -26 -89 -61 -115 -78 -71 -44 -214 -186 -271 -268 -140 -203 -212 -432
-212 -672 0 -197 48 -361 148 -509 27 -39 65 -103 85 -141 88 -168 230 -309
395 -393 312 -160 648 -243 927 -229 320 16 607 167 781 412 149 209 182 261
220 340 52 109 96 275 119 449 21 154 16 449 -9 556 -80 346 -281 597 -601
751 -116 55 -192 81 -242 83 -61 2 -46 -18 25 -35 166 -40 340 -141 477 -275
92 -91 160 -189 211 -305 38 -86 85 -254 83 -298 0 -14 -9 10 -19 54 -70 309
-277 569 -580 729 -222 117 -437 156 -684 125z m289 -29 c268 -31 577 -215
744 -443 47 -65 126 -205 119 -213 -3 -2 -25 26 -48 63 -56 85 -193 224 -290
292 -82 58 -239 140 -338 177 -34 13 -120 36 -190 51 -109 23 -152 27 -309 27
-100 1 -176 4 -170 7 21 11 112 30 183 38 101 12 197 12 299 1z m-128 -81
c191 -26 339 -75 488 -160 284 -162 464 -386 536 -664 32 -121 34 -372 5 -510
-77 -367 -280 -656 -562 -799 -189 -95 -316 -126 -565 -133 -318 -9 -437 15
-694 144 -166 84 -215 121 -296 225 -204 265 -261 576 -170 929 69 267 203
501 401 700 l105 106 80 19 c123 29 433 27 570 -5 148 -34 175 -36 175 -19 0
27 -313 78 -475 78 -79 -1 -211 -14 -248 -26 -13 -4 -18 -2 -15 7 9 26 151 89
233 103 97 17 325 20 432 5z m-932 -291 c-77 -83 -174 -219 -235 -328 -23 -41
-38 -64 -34 -50 13 48 61 146 107 218 53 81 192 232 214 232 8 0 -15 -33 -52
-72z m-161 -90 c-4 -7 -24 -38 -44 -68 -110 -164 -191 -406 -231 -688 -12 -87
-8 -392 6 -424 4 -10 3 -18 -3 -18 -12 0 -56 132 -72 217 -8 40 -11 113 -7
205 4 121 10 160 36 251 54 188 151 366 264 490 41 44 67 62 51 35z m2223
-470 c-3 -8 -6 -5 -6 6 -1 11 2 17 5 13 3 -3 4 -12 1 -19z m-131 -789 c-32
-109 -77 -216 -121 -289 -66 -109 -253 -259 -416 -334 -164 -76 -317 -111
-540 -126 -231 -16 -322 1 -509 95 -81 40 -192 106 -187 111 1 2 44 -13 94
-32 128 -48 183 -61 319 -75 236 -24 488 2 699 72 279 93 516 311 641 587 20
45 39 81 41 79 2 -2 -8 -42 -21 -88z m-2241 -109 c17 -33 19 -44 6 -36 -10 6
-33 66 -26 66 3 0 11 -13 20 -30z m154 -237 c20 -15 69 -58 108 -95 63 -57
203 -159 237 -171 6 -2 8 -7 4 -11 -7 -9 -89 31 -168 82 -80 51 -253 222 -224
222 4 0 23 -12 43 -27z m1791 -188 c-37 -45 -176 -143 -255 -182 -152 -73
-220 -86 -440 -87 -133 -1 -196 3 -210 11 -17 11 -11 12 41 13 296 1 624 97
834 243 38 27 51 27 30 2z"/>
</g>
</svg>
