<svg id="Layer_1" data-name="Layer 1" xmlns="http://www.w3.org/2000/svg" viewBox="0 0 512 512"><title>thumb</title><path d="M7.774830394771888 17.48798096253062 C9.196829384231414 16.878714133719605, 11.464078576537858 17.290936053130224, 13.06417085270403 18.294901478210853 C14.664263128870203 19.298866903291483, 16.426765181793503 21.822568082248907, 17.37538405176893 23.511773513014397 C18.324002921744356 25.200978943779887, 19.156042642841008 26.692316897454297, 18.755884072556594 28.430134062803806 C18.35572550227218 30.167951228153314, 16.59194997425749 33.04192466519975, 14.974432630062438 33.938676505111445 C13.356915285867387 34.83542834502314, 10.715120569688414 34.34413688382796, 9.050780007386287 33.81064510227397 C7.38643944508416 33.27715332071999, 6.154412871493226 31.9326188908773, 4.988389256249675 30.737725815787545 C3.822365641006125 29.54283274069779, 2.1919307230719647 28.24258146388061, 2.0546383159249846 26.641286651735452 C1.9173459087780047 25.039991839590293, 2.8791699121068595 22.534311054961584, 4.164634813367796 21.12995694291658 C5.450099714628732 19.725602830871573, 8.713681557655319 18.708810993628568, 9.7674277234906 18.215161979465428 C10.821173889325882 17.72151296530229, 10.639481098886096 18.0646102584124, 10.48711180837949 18.16806285793775 M8.36699359686813 18.345657385276617 C10.262520526558323 18.013238601461556, 13.771508204024007 17.133354308855765, 15.090090366361848 17.781421118301193 C16.40867252869969 18.42948792774662, 15.650834519626368 20.60736332038577, 16.278486570895176 22.234058241949192 C16.906138622163983 23.860753163512616, 19.15406720831772 25.521617399048164, 18.856002673974686 27.541590647681733 C18.557938139631652 29.561563896315302, 16.273751331874525 33.3452534955762, 14.490099364836976 34.35389773375061 C12.706447397799428 35.36254197192501, 10.168743631368649 33.96376830225127, 8.154090871749396 33.59345607672818 C6.139438112130144 33.223143851205094, 3.641450331210727 33.52631136283263, 2.40218280712146 32.13202438061208 C1.1629152830321932 30.73773739839153, 0.5354333472167315 27.147553052370053, 0.7184857272137943 25.227734183404888 C0.9015381072108571 23.30791531443972, 2.091140539143292 21.73076004373434, 3.5004970871038372 20.613111166821085 C4.909853635064382 19.49546228990783, 8.227978184982673 19.216782174666736, 9.174625014977067 18.521840921925367 C10.121271844971462 17.826899669183998, 9.223711768977513 16.35788413409749, 9.180378067070205 16.443463650372873" fill="#fff" stroke="#444444" stroke-width="1"></path></svg>