<?xml version="1.0" standalone="no"?>
<!DOCTYPE svg PUBLIC "-//W3C//DTD SVG 20010904//EN"
 "http://www.w3.org/TR/2001/REC-SVG-20010904/DTD/svg10.dtd">
<svg version="1.0" xmlns="http://www.w3.org/2000/svg"
 width="200.000000pt" height="250.000000pt" viewBox="0 0 200.000000 250.000000"
 preserveAspectRatio="xMidYMid meet">

<g transform="translate(0.000000,250.000000) scale(0.100000,-0.100000)"
fill="#000000" stroke="none">
<path d="M1530 2471 c-30 -9 -73 -29 -95 -43 -106 -67 -225 -244 -225 -334 0
-24 -2 -44 -4 -44 -2 0 -30 14 -61 30 -68 36 -110 38 -156 7 -47 -31 -65 -86
-46 -142 l13 -41 -125 -115 c-214 -194 -325 -310 -351 -364 -19 -38 -26 -74
-30 -150 -3 -55 -12 -111 -20 -125 -7 -14 -60 -73 -117 -131 -135 -140 -168
-212 -128 -289 22 -43 53 -60 108 -60 64 0 94 17 195 112 98 92 155 122 262
138 95 14 178 53 256 117 34 28 140 137 237 241 l176 189 40 -10 c79 -21 151
42 151 133 0 26 -7 56 -16 68 -19 27 -21 25 36 41 80 23 209 92 259 140 89 83
124 196 101 329 -41 247 -236 375 -460 303z m220 -38 c48 -19 109 -63 121 -86
8 -14 6 -23 -7 -38 -20 -23 -8 -26 16 -4 16 14 19 12 38 -33 62 -143 38 -316
-54 -403 -22 -21 -25 -21 -42 -6 -27 24 -35 21 -17 -7 15 -23 15 -25 -18 -45
-60 -37 -149 -72 -198 -78 -41 -5 -52 -2 -90 25 -24 16 -97 87 -163 156 -113
121 -118 128 -113 162 14 82 104 231 134 220 10 -4 13 -1 8 13 -4 14 5 28 37
54 110 89 239 115 348 70z m-616 -391 c27 -15 132 -106 237 -206 211 -200 227
-225 196 -291 -19 -40 -68 -69 -100 -59 -12 3 -85 68 -162 144 -77 75 -173
164 -213 197 -40 34 -81 72 -93 87 -41 53 -31 127 21 153 29 15 47 11 114 -25z
m-76 -234 c109 -91 232 -208 284 -270 33 -40 38 -51 28 -63 -17 -20 -24 -19
-35 8 -6 12 -28 31 -50 42 -59 29 -219 27 -335 -5 -61 -16 -116 -23 -195 -25
-73 -1 -125 -8 -154 -19 -24 -9 -46 -16 -49 -16 -11 0 112 121 223 220 61 53
128 120 150 148 22 28 41 51 43 52 2 0 42 -33 90 -72z m200 -318 c23 -10 42
-24 42 -29 0 -18 -38 -31 -93 -31 -61 0 -238 28 -250 40 -14 13 104 38 183 39
54 0 87 -5 118 -19z m-298 -65 c62 -16 149 -29 213 -33 l108 -7 -98 -109
c-107 -120 -228 -229 -299 -271 -29 -17 -78 -32 -133 -42 -125 -21 -194 -57
-293 -151 -46 -43 -93 -84 -105 -91 -38 -19 -91 -14 -118 14 -53 53 -26 115
110 255 125 128 141 159 150 292 7 87 10 99 34 122 47 45 94 56 216 52 77 -2
141 -12 215 -31z"/>
<path d="M1545 2268 c-81 -29 -156 -104 -170 -170 -11 -48 9 -54 30 -8 21 48
73 103 118 127 19 10 65 18 115 21 45 2 82 8 82 12 0 27 -117 39 -175 18z"/>
<path d="M150 559 c-50 -49 -112 -175 -136 -275 -38 -164 27 -274 163 -274 93
1 163 53 178 132 16 84 -48 249 -110 288 -63 39 -70 25 -19 -45 78 -111 106
-222 68 -280 -22 -34 -93 -59 -141 -50 -115 21 -138 115 -73 297 29 80 81 167
125 208 30 28 32 40 6 40 -10 0 -38 -19 -61 -41z"/>
</g>
</svg>
