<svg id="Layer_1" data-name="Layer 1" xmlns="http://www.w3.org/2000/svg" viewBox="0 0 512 512"><title>pencil</title><path d="M367.36,3.21S362-5.81,374,6.38l10.49,9,9,5.27L400,28.24s-2.85,6.88-53,64.93c0,0-17.61,25.63-46.86,54.8,0,0-214.12,209.25-234.3,220.87,0,0,139-126.41,145.48-136.71,0,0-132.14,121.75-145.78,127.61,0,0,129-117.21,135.07-133.1,0,0-118.77,107.92-137.44,116.69,0,0,23.75-19.74,29-26.15l-11.63,8.65,16.56-16.09,10.57-8.28s-29,22.13-32.47,22.18c0,0-9.62,13.7,35.79-33.11C111,290.53,232.17,193.57,367.36,3.21Z" fill="#231f20"/><path d="M357.21,26.17s-4.35,4.85,1.46-3.62l4.15-6.9L365,10.43l3.61-4.88c-1,.93,7.35-3.92,35.69,10.15a72.07,72.07,0,0,1,25,15c.09-.1,21.95,19.84,38.27,46.59,17.52,25.62,23.5,63.69,19.46,72.49,1.06-.79,1.2-25.65-6.49-44.67-6.88-19.67-18.42-35.87-20.28-37.33-.11.08,10.1,14.79,17,33.41,7.73,17.87,8.75,42.24,6.7,47,.64-.4.44-22.67-7-40.16-6.72-18-17.85-33.14-21.16-34.18,2.32-2.15,29.13,58.7,21.37,73.38.19-.08-.1-14.89-1.88-17.71l.45,6.72-2.24-9.73c-.16-2.09-.7-3.87-1-5.82.43-.29,1.91,16.41.87,18.28-.4.29,4,5.2-4.93-20.13,0,0-3.18-16.81-18.71-38C434,61.09,406.76,31.1,357.21,26.17Z" fill="#231f20"/><path d="M461.32,106.13s-5.4-9,6.64,3.21l10.47,9,9,5.28,6.56,7.59s-2.79,6.82-52.18,64.16c0,0-17.32,25.33-46.17,54.11,0,0-211.25,206.41-231.23,217.8,0,0,137.24-124.63,143.57-134.83,0,0-130.4,120-143.91,125.79,0,0,127.38-115.57,133.25-131.29,0,0-117.24,106.37-135.72,115,0,0,23.46-19.46,28.6-25.78l-11.5,8.52L195,408.76l10.44-8.15s-28.61,21.78-32.09,21.81c0,0-9.45,13.5,35.33-32.65C208.66,389.78,328.34,294.28,461.32,106.13Z" fill="#231f20"/><path d="M75.1,329.25s-3.85-3.53,3.47,1l6.08,3.22,4.78,1.8,4.12,2.9c.27.2-.75,2.2-9.31,27.59A127.93,127.93,0,0,1,77,390.28c-.13-.1-10,24.74-21.83,50.63-11.5,26-28,51.67-32,54.11,2.13.94,36.92-59.53,35.93-64.41,1,.24-30.44,58.74-37.41,60.62,1.71.91,33.89-54.66,31.62-61.6.74.25-27.26,51.79-35.22,55,0,0,6.89-8.79,7.89-11.6l-3.46,4c1.49-2.34,2.8-4.76,4.16-7.17l3-3.85s-8.2,10.33-9.84,10.38c-.19-.12-1.27,6.06,9.07-14.84-.08,0,8.39-11.26,17.33-33.8C56.12,405,62.54,372.56,75.1,329.25Z" fill="#231f20"/><path d="M29.52,510.45s-.62,5.17-1.18-3.37l-.84-6.83-1.2-4.91-.06-5c-.05-.52,2.26-.27,24.72-9.05a130.11,130.11,0,0,1,20.73-10.22c-.14,2,90.25-40.56,100-39.89-.75-.79-60.07,22.3-62.68,25.21-.25.15,55.93-22.82,61.88-21.34-.5-.72-55.39,20.57-58.33,26-.11.08,50.15-19.83,57.69-18.6,0,0-10,2.68-12.36,4.26l4.81-1-7.11,3-4.39,1.14s12-2.83,13.25-2c0,.07,4.38-3.7-15.18,5.81,0,0-12.56,3.53-32.78,13.55C95.24,476.42,70.83,495.08,29.52,510.45Z" fill="#231f20"/><path d="M93.1,346.59s-2.06,1.8-.08-2l1.18-3.27.21-2.71,1.39-2.12s.72.24,4.78,1.78c4,1.18,11.27,5.4,24.54,3.7a10.13,10.13,0,0,0,1.84-.45l2.17-.64,1.37-.37.74-.2.39-.12.2,0,.09,0,.06,0h0c-1.56-1.83,13.69,16,7.25,8.47h0v0a104,104,0,0,0-4,18c-.12,0-.72,6.83-2.55,18.5-.41,2.89-1.25,6-2,9.34l-.05.15,0,.07v.05c8.2,7-11.17-9.46-9.15-7.78l.31-.12.64-.22,1.3-.47,2.63-.93a46.35,46.35,0,0,1,5.51-1.53c7.5-1.85,15.48-2.49,22.88-3.25a91.62,91.62,0,0,0,10.6-1.57l2.41-.62L169,378l.15,0,.08,0,0,0c12.62,20.35,3.48,5.65,6.28,10.2l-.24.25-.5.5-1,1-.5.47-.07.08,0,0c3.34-11,.93-3,1.67-5.45l0,.19,0,.42.34,3.23c.53,8.38-.5,15.35-1.32,21.63-1.9,12.39-3.8,21.09-4.44,23.23-.31-.12,4.17-17.67,5.61-37.72A51.09,51.09,0,0,0,175,388l-.22-2.07,0-.5,0-.25,0-.14v-.1c-.71,2.36,1.61-5.33-1.61,5.28l.63-.61,1.25-1.2.31-.3.17-.14,0,0c1.35,2.14-11.58-18.68-6.12-9.86h0l-.08,0-.75.17a71.45,71.45,0,0,1-11.42,2c-7.22.77-13,1.38-14.16,1.73,0,0,4.62-.5,11.23-1,3.27-.27,7-.67,10.83-1.35l2.81-.66,1.45-.32.17,0,.1,0h0c-4.91-7.94,6.73,10.77,5.51,8.84l0,0-.31.27-.61.59-1.24,1.16-.14.12-.08.07,0,0c-.33,1,2.71-9,1.44-4.71v.05l0,.5.09,1,.35,3.92c-.4,19.74-5.55,37.7-6.28,40.44-.25-.1,3.83-16.54,5-35.06a51.61,51.61,0,0,0-.15-7.17l-.2-1.85-.1-.91,0-.47,0-.12v-.07c.24-.77-2,6.73-1.07,3.53l.14-.15,1.19-1.14.58-.57.29-.29.15-.13v0c.9,1.43-7.7-12.45-4.08-6.58l0,0-.08,0a83.55,83.55,0,0,1-11.07,2.36c-7,1-12.56,1.67-14,2.34,0,0,4-.39,10-.81,3-.25,6.43-.59,10.06-1.16,1.8-.35,3.64-.82,5.54-1.21l.08-.05h0c-2.18-3.5,3,4.8,2.47,4l0,0-.14.13-.28.24-.57.52-1.14,1.06c.66-3.3.35,1,.55,1.13.39,17.45-4.68,34.33-5.75,38.07,0,0,2.53-11.82,2.7-15.06L167,417l1.24-9,1-5.17c.11,0-2.81,13.93-3.64,14.79-.25,0,.36,6.53,2.56-18.82a47,47,0,0,0,.29-10.67c-1-1.2,1.88-5.74,2.44-3.8-2.15.47-4.46,1.25-7,1.56-5.1,1-11,1.35-17.58,2.22s-13.87,2.05-21.06,5.35c-2.16-7.37,1.38-16.11,1-25.26a97.33,97.33,0,0,1,1.88-14.47,63,63,0,0,1,2-7.47l.27-1,.15-.47c7.67,8.94,2.09,2.46,3.8,4.48l-.06,0-.13,0-.25.07-2,.5-4,1C117,353.62,103.86,351.13,93.1,346.59Z" fill="#231f20"/><path d="M291.28,130.35s-2.25-1.51,1.85-.24l3.36.69,2.58.07,2.35,1c.93-.07-2.15,2.09.61,20.67a135.29,135.29,0,0,0,7.14,16.16c-.4,0,8.67,17,25.12,29.08,15.84,12.81,36.49,18.14,39.15,18.83a87.24,87.24,0,0,1-23.08-8.42c-11.26-5.72-20.94-14.39-22.28-15.13a108,108,0,0,0,19,14.19c10.48,6.28,22.72,10.06,24.44,10.72,0,.2-11.29-2.52-22-8.13-10.81-5.35-20.58-13.26-22.61-14a109.81,109.81,0,0,0,17.53,13.38c9.64,6.29,21.34,10.1,23.76,11.56,0,0-8-2.71-10.13-3.43a27.71,27.71,0,0,0,3.57,1.72,54.19,54.19,0,0,1-6-2.14l-3.27-1.67c0-.05,8.83,4.73,9.47,5.25.13-.37,4.3,1.41-12.54-5.17.16-.24-9.81-4.59-24.21-16.28a112.79,112.79,0,0,1-22.77-24.56C295.17,163.73,288.62,148.66,291.28,130.35Z" fill="#231f20"/><path d="M353.23,72.44s-2.67-.34,1.58-1l3.34-.88,2.35-1.13,2.52-.18c.39-.15.09,2.12,7.7,21,0,0,3.93,7.2,9.05,16.66.13-.32,8.89,18.06,25.1,29.86,15.88,12.67,37.56,12.66,40.32,12.49.07,0-12.41,1-23.94-3.53-11.72-4-21.16-12.94-22.55-13.57.07-.2,8.15,8.47,19.28,13.09,10.92,5,23.86,5.64,25.7,5.77a63.31,63.31,0,0,1-23-3.53c-11.39-3.72-21-11.93-23.13-12.59a72.74,72.74,0,0,0,18,12.59c10.26,5.47,22.86,6.29,25.55,7.07,0,.25-8.52-.94-10.78-1a30.39,30.39,0,0,0,3.92.86,31.44,31.44,0,0,1-6.38-.87l-3.55-1.09c-.07.08,9.65,3.06,10.45,3.32.09-.64,4.51,1-13.52-2.74C422.18,154,375,138.65,353.23,72.44Z" fill="#231f20"/><path d="M299.38,171.15s-.86-2.71,2.11.35l2.82,2.05,2.74.82,1.49,2.05s-2,3-28.56,31.49c0,0-10,12-24.92,26.88,0,0-108.5,107.11-117.69,114.13,0,0,69.23-66,73-70.7,0,0-66,63.3-72,67.3,0,0,64.23-61.2,68.6-68,0,0-59.13,56.31-67.36,62.05,0,0,11.58-10.57,14.41-13.68l-5.55,4.78,8.37-8.23,5.1-4.51s-13.88,12.15-15.22,12.61c0,0-5.43,6.46,17.89-17.17C164.69,313.38,223.3,260.9,299.38,171.15Z" fill="#231f20"/><path d="M333.56,207.5s-.88-2.71,2.1.37l2.81,2,2.72.86,1.5,2s-1.94,3-28.16,31.1c0,0-9.88,11.88-24.56,26.51,0,0-107.08,105.71-116.16,112.63,0,0,68.32-65.07,72.06-69.76,0,0-65.13,62.44-71,66.35,0,0,63.4-60.34,67.68-67.07,0,0-58.36,55.56-66.5,61.21,0,0,11.44-10.42,14.21-13.5L184.79,365l8.28-8.16,5-4.44s-13.7,12-15,12.45c0,0-5.34,6.34,17.66-17C200.71,347.87,258.58,296.15,333.56,207.5Z" fill="#231f20"/><path d="M52.08,455s0,3.84-.26-2.59l-.26-5.15-.38-3.77-.08-3.74c.27.27,0-1.7,9.41-2.52-.17.25,4.82-1.88,10.92,3.18,1.32-.67,7.8,11.95,7.62,17,.91,5.44,2.83,7.42,3.21,9-1.48.39-3.3-8.89-4.21-11.24-.2,1.51,1.46,11.33,2.51,13.11-1.44.42-4.32-9.88-6.55-11.61-.47.59,1.48,12.39,3,15.2-.13.08-1.43-2.58-2.12-2.84l.35,1.43a11.39,11.39,0,0,1-1.39-1.58l-.24-1.33c-.14,0,.67,3.67.42,4.49.15-.12,1.57.66-2.64-4.09,0-.05-.84-3.89-2.55-9.54-.94-2.68-2.51-6.73-5.89-8C59.64,449.29,56,451.19,52.08,455Z" fill="#231f20"/></svg>