<?xml version="1.0" standalone="no"?>
<!DOCTYPE svg PUBLIC "-//W3C//DTD SVG 20010904//EN"
 "http://www.w3.org/TR/2001/REC-SVG-20010904/DTD/svg10.dtd">
<svg version="1.0" xmlns="http://www.w3.org/2000/svg"
 width="273.000000pt" height="262.000000pt" viewBox="0 0 273.000000 262.000000"
 preserveAspectRatio="xMidYMid meet">

<g transform="translate(0.000000,262.000000) scale(0.100000,-0.100000)"
fill="#000000" stroke="none">
<path d="M1176 2595 c-99 -19 -236 -65 -318 -106 -211 -106 -436 -334 -613
-620 -80 -128 -131 -249 -162 -377 -41 -173 -42 -174 -37 -37 8 210 23 339 50
432 51 181 139 328 305 512 56 62 99 114 96 117 -3 3 -41 -32 -86 -78 -214
-221 -320 -405 -367 -642 -22 -108 -31 -507 -15 -631 22 -168 109 -382 214
-524 67 -92 196 -215 291 -276 255 -166 611 -301 883 -336 144 -18 354 -7 478
26 352 92 616 346 744 719 52 150 71 268 71 442 0 381 -142 797 -340 994 -78
78 -160 133 -340 227 -144 76 -237 112 -365 144 -109 28 -376 35 -489 14z
m419 -21 c49 -8 91 -17 94 -19 11 -11 -9 -12 -91 -5 -198 18 -534 -42 -701
-126 -294 -149 -489 -417 -571 -785 -89 -401 -72 -691 56 -929 58 -109 186
-252 318 -356 33 -26 58 -49 56 -52 -8 -7 -116 56 -193 114 -252 188 -406 420
-464 699 -16 77 -16 253 0 330 43 205 149 411 329 640 80 101 247 265 319 314
256 172 526 227 848 175z m81 -49 c162 -29 341 -102 454 -185 97 -72 237 -223
313 -337 123 -184 206 -402 212 -558 l4 -90 -14 90 c-39 241 -135 433 -315
630 -100 110 -169 169 -280 243 -155 102 -316 168 -474 194 -39 6 -75 15 -80
20 -16 13 85 9 180 -7z m-156 -15 c187 -30 417 -128 570 -244 112 -84 270
-250 343 -359 137 -203 189 -366 189 -587 0 -297 -124 -588 -351 -823 -155
-161 -330 -272 -541 -343 -81 -28 -93 -29 -250 -28 -138 1 -184 5 -283 27
-243 53 -544 239 -700 432 -66 83 -134 219 -165 333 -24 89 -26 113 -26 287 0
265 32 419 134 630 103 214 247 385 422 502 228 152 439 207 658 173z m-637
-139 c-168 -110 -294 -237 -396 -399 -22 -34 -42 -60 -45 -58 -8 9 68 138 125
214 86 113 198 205 331 272 87 45 83 36 -15 -29z m1479 -190 c34 -38 71 -84
81 -102 18 -33 17 -33 -15 6 -18 22 -59 68 -92 103 -33 34 -54 62 -49 62 6 0
40 -31 75 -69z m322 -1013 c-9 -132 -25 -232 -51 -323 -123 -429 -425 -723
-812 -790 -96 -17 -189 -20 -156 -4 16 7 14 8 -10 4 -139 -20 -266 -11 -430
31 -61 16 -170 63 -162 70 2 2 40 -7 84 -20 127 -38 223 -49 363 -41 242 12
397 43 513 101 71 36 175 114 230 173 133 142 327 517 397 766 12 44 24 86 26
93 9 31 12 6 8 -60z m-399 -723 c-77 -101 -153 -166 -255 -219 -91 -47 -205
-86 -249 -86 -22 1 -19 4 19 19 171 69 320 164 448 286 48 45 89 81 91 79 2
-2 -22 -38 -54 -79z"/>
</g>
</svg>
