<?xml version="1.0" standalone="no"?>
<!DOCTYPE svg PUBLIC "-//W3C//DTD SVG 20010904//EN"
 "http://www.w3.org/TR/2001/REC-SVG-20010904/DTD/svg10.dtd">
<svg version="1.0" xmlns="http://www.w3.org/2000/svg"
 width="273.000000pt" height="262.000000pt" viewBox="0 0 273.000000 262.000000"
 preserveAspectRatio="xMidYMid meet">

<g transform="translate(0.000000,262.000000) scale(0.100000,-0.100000)"
fill="#000000" stroke="none">
<path d="M1140 2593 c-410 -62 -764 -339 -961 -749 -53 -111 -105 -259 -138
-391 -26 -100 -27 -126 -5 -121 23 4 27 15 64 158 134 516 421 866 830 1013
149 54 264 71 438 64 81 -3 163 -11 182 -16 28 -8 15 -9 -60 -6 -175 9 -364
-33 -555 -125 -369 -177 -627 -527 -719 -974 -51 -245 -16 -497 101 -729 71
-143 120 -203 315 -387 169 -160 186 -174 282 -220 55 -27 128 -56 161 -64
289 -73 721 -23 995 114 402 202 640 631 640 1152 0 267 -65 486 -209 703 -61
92 -198 228 -291 288 -119 77 -304 176 -401 213 -223 86 -445 112 -669 77z
m512 -112 c147 -26 315 -85 398 -141 240 -162 432 -481 486 -805 19 -118 15
-318 -11 -460 -80 -446 -345 -759 -750 -884 -133 -40 -205 -51 -355 -51 -252
0 -509 70 -694 188 -149 95 -286 492 -286 827 0 57 -7 69 -30 55 -11 -7 -13
-33 -12 -116 3 -179 46 -393 107 -531 14 -31 23 -58 21 -60 -2 -2 -20 15 -41
39 -99 116 -189 309 -224 485 -39 189 -23 376 51 598 140 421 406 697 800 829
176 59 310 66 540 27z m810 -495 c65 -94 134 -251 169 -381 28 -110 31 -133
31 -275 0 -538 -219 -943 -617 -1143 -177 -88 -414 -139 -655 -139 -177 -1
-288 19 -402 70 -59 27 -182 102 -167 102 3 0 60 -18 127 -39 66 -22 169 -47
229 -57 145 -23 380 -23 486 0 459 100 773 402 888 853 59 234 64 430 14 648
-37 164 -87 283 -199 470 -29 48 46 -38 96 -109z"/>
</g>
</svg>
